<svg width="57" height="16" viewBox="0 0 57 16" fill="none" xmlns="http://www.w3.org/2000/svg">
<rect width="56.3697" height="16" rx="2" fill="#D0011B"/>
<path fill-rule="evenodd" clip-rule="evenodd" d="M11.1396 4.00102H10.3796C10.3577 4.00106 10.3361 4.00601 10.3165 4.01551C10.2968 4.02501 10.2796 4.0388 10.2662 4.05584L9.80364 4.55596C9.76893 4.58952 9.73696 4.62344 9.70791 4.65703L9.6766 4.69332L9.46981 4.91692C9.08851 5.30102 8.50794 5.72693 7.65338 5.73568H7.62741C6.72904 5.73568 6.13305 5.23784 5.77903 4.87741L5.01727 4.0543C5.00379 4.03741 4.98659 4.02374 4.96699 4.01434C4.94738 4.00493 4.92587 4.00003 4.90407 4H4.14436C4.1061 4.00007 4.06942 4.01509 4.04236 4.04179C4.0153 4.06848 4.00007 4.10467 4 4.14242V11.8559C4.00007 11.8936 4.0153 11.9298 4.04236 11.9565C4.06942 11.9832 4.1061 11.9982 4.14436 11.9983H4.90381C4.94208 11.9982 4.97876 11.9832 5.00581 11.9565C5.03287 11.9298 5.0481 11.8936 5.04817 11.8559V5.60581C5.22389 5.75544 5.4058 5.89781 5.59342 6.03254C6.07252 6.38783 6.74817 6.72468 7.62949 6.72468H7.66246C8.4903 6.71624 9.12946 6.42779 9.58757 6.11393L9.59422 6.11324L9.66106 6.06229C9.71928 6.02033 9.77432 5.97817 9.82619 5.93641L10.235 5.62476V11.8559C10.2352 11.8936 10.2504 11.9298 10.2774 11.9564C10.3045 11.9831 10.3411 11.9982 10.3794 11.9983H11.1393C11.1776 11.9982 11.2142 11.9831 11.2413 11.9564C11.2683 11.9298 11.2836 11.8936 11.2837 11.8559V4.14344C11.2836 4.10576 11.2684 4.06965 11.2414 4.04298C11.2144 4.01631 11.1778 4.00123 11.1396 4.00102ZM17.6836 6.99875H16.9252C16.8869 6.99881 16.8502 7.01384 16.8232 7.04054C16.7961 7.06723 16.7809 7.10342 16.7808 7.14117V7.61376C16.3218 7.22954 15.6929 6.96622 15.0371 6.96622C13.5937 6.96622 12.4235 8.09328 12.4235 9.48085C12.4235 10.8684 13.5937 11.9957 15.0371 11.9957C15.6755 11.9906 16.2922 11.7659 16.7808 11.3605V11.8556C16.7807 11.8744 16.7844 11.893 16.7916 11.9104C16.7988 11.9278 16.8094 11.9436 16.8228 11.9569C16.8362 11.9702 16.8522 11.9808 16.8697 11.9881C16.8873 11.9953 16.9061 11.999 16.9252 11.9991H17.6849C17.7232 11.999 17.7598 11.984 17.7869 11.9573C17.814 11.9306 17.8292 11.8944 17.8293 11.8566V7.14347C17.8295 7.12448 17.826 7.10562 17.8188 7.088C17.8115 7.07039 17.8008 7.05437 17.7873 7.04089C17.7737 7.02741 17.7575 7.01674 17.7397 7.0095C17.7219 7.00227 17.7029 6.99861 17.6836 6.99875ZM15.0846 11.07C14.1499 11.07 13.3923 10.3594 13.3923 9.48341C13.3923 8.60737 14.1499 7.89707 15.0846 7.89707C16.0193 7.89707 16.7772 8.60737 16.7772 9.48341C16.7772 10.3594 16.0193 11.07 15.0846 11.07ZM21.4022 11.216C21.4113 11.1797 21.4055 11.1413 21.386 11.1092C21.3666 11.0771 21.335 11.0539 21.2983 11.0446L20.9584 10.9604L20.9491 10.9581C20.4285 10.8523 20.24 10.6832 20.2153 10.2152V4.14317C20.2151 4.10563 20.1997 4.06972 20.1727 4.04331C20.1456 4.0169 20.109 4.00215 20.071 4.00229H19.3699C19.3319 4.00215 19.2953 4.0169 19.2683 4.04331C19.2412 4.06972 19.2259 4.10563 19.2256 4.14317V9.95779C19.1783 11.321 19.9679 11.749 20.7009 11.9091L21.0509 11.9957C21.0879 12.0048 21.127 11.9992 21.1598 11.98C21.1926 11.9608 21.2165 11.9297 21.2261 11.8933L21.3058 11.591C21.3083 11.5829 21.3104 11.5744 21.3125 11.5661C21.3132 11.5631 21.3139 11.5601 21.3147 11.5572L21.4022 11.216ZM23.9797 11.1091C23.9992 11.1413 24.0049 11.1797 23.9957 11.216L23.9082 11.5572C23.9056 11.5685 23.9028 11.58 23.8994 11.591L23.8199 11.8933C23.8102 11.9297 23.7863 11.9609 23.7535 11.98C23.7206 11.9992 23.6815 12.0048 23.6444 11.9957L23.2944 11.9091C22.5615 11.749 21.7722 11.321 21.8191 9.95779V4.14317C21.8194 4.10563 21.8348 4.06972 21.8618 4.04331C21.8889 4.0169 21.9254 4.00215 21.9635 4.00229H22.6645C22.7026 4.00215 22.7392 4.0169 22.7662 4.04331C22.7933 4.06972 22.8086 4.10563 22.8089 4.14317V10.2152C22.8336 10.6832 23.0234 10.8523 23.5426 10.9581C23.546 10.9586 23.5489 10.9604 23.5522 10.9604L23.8919 11.0446C23.9286 11.0538 23.9602 11.077 23.9797 11.1091Z" fill="white"/>
<path d="M29.5 3H29V13H29.5V3Z" fill="white"/>
<path d="M38.3915 11.9983C37.8649 12.0023 37.3435 11.8923 36.8634 11.6758C36.4008 11.4684 35.983 11.1729 35.6334 10.8058C35.2803 10.4374 34.9981 10.0071 34.8009 9.53641C34.3997 8.54742 34.3997 7.44102 34.8009 6.45203C34.9928 5.98069 35.2714 5.54949 35.6222 5.18078C35.9733 4.81431 36.3931 4.52059 36.8578 4.3164C37.3421 4.10858 37.8636 4.0014 38.3906 4.0014C38.9176 4.0014 39.4391 4.10858 39.9234 4.3164C40.387 4.51994 40.8066 4.81159 41.159 5.17515C41.5112 5.54175 41.7916 5.97102 41.9859 6.44078C42.1902 6.93203 42.2935 7.45938 42.2896 7.9914C42.2905 8.52132 42.1873 9.04625 41.9859 9.53641C41.6015 10.4915 40.8624 11.2609 39.9234 11.6833C39.4417 11.8983 38.919 12.0058 38.3915 11.9983ZM38.4028 5.82953C38.1182 5.82694 37.8362 5.88511 37.5759 6.00015C37.329 6.11115 37.1056 6.26835 36.9178 6.46328C36.7304 6.66049 36.5822 6.89144 36.4809 7.14391C36.3746 7.41109 36.3211 7.69636 36.3234 7.98391C36.3206 8.27697 36.3741 8.56786 36.4809 8.84078C36.5799 9.09887 36.7283 9.33516 36.9178 9.53641C37.1058 9.73177 37.3316 9.88679 37.5815 9.99203C37.8409 10.1032 38.1206 10.1594 38.4028 10.157C38.6832 10.1598 38.9611 10.1036 39.2184 9.99203C39.4646 9.88702 39.6862 9.73184 39.869 9.53641C40.0547 9.33614 40.201 9.1027 40.3003 8.84828C40.4087 8.57577 40.4629 8.28469 40.4597 7.9914C40.4635 7.42784 40.2522 6.88403 39.869 6.47078C39.685 6.27478 39.4638 6.11735 39.2184 6.00766C38.9623 5.89082 38.6842 5.83009 38.4028 5.82953Z" fill="white"/>
<path d="M43.1971 4.11389H45.9459C46.1334 4.11389 46.3003 4.11389 46.4634 4.12702C46.8433 4.14069 47.2186 4.21475 47.5753 4.34639C47.908 4.46784 48.2124 4.65608 48.4696 4.89952C48.7266 5.15036 48.9279 5.45255 49.0603 5.78639C49.2133 6.17543 49.2879 6.59091 49.2796 7.00889C49.3014 7.57356 49.1623 8.13278 48.8784 8.62139C48.6216 9.03657 48.2496 9.36815 47.8078 9.57577L49.4859 11.8989H47.3934L45.9703 9.89264H44.984V11.8989C44.5099 11.8984 44.0554 11.7097 43.7204 11.3743C43.3853 11.0389 43.1971 10.5842 43.1971 10.1101V4.11389ZM45.2409 8.13014H45.8428C45.9609 8.13014 46.0696 8.13014 46.1709 8.13014C46.2721 8.13014 46.3584 8.13014 46.409 8.13014C46.6976 8.12436 46.9769 8.02647 47.2059 7.85077C47.3199 7.74727 47.4084 7.61873 47.4644 7.47525C47.5203 7.33177 47.5423 7.17727 47.5284 7.02389C47.5411 6.87145 47.5186 6.71813 47.4627 6.57575C47.4068 6.43337 47.3189 6.30572 47.2059 6.20264C46.9738 6.02231 46.6897 5.9217 46.3959 5.91577H46.1709L45.854 5.90452C45.7453 5.90452 45.6365 5.90452 45.5259 5.90452H44.984V8.15452L45.2409 8.13014Z" fill="white"/>
<path d="M52.3696 11.9008C51.8534 11.9008 51.3584 11.6957 50.9934 11.3307C50.6284 10.9657 50.4233 10.4707 50.4233 9.95452V4.11389C50.9397 4.11439 51.4347 4.31986 51.7997 4.68515C52.1646 5.05044 52.3696 5.54567 52.3696 6.06202V11.9008Z" fill="white"/>
</svg>
